<svg height="64" version="1" width="64" xmlns="http://www.w3.org/2000/svg">
    <g>
        <g stroke-linecap="round" stroke-linejoin="round">
            <path d="M59.91 56.51L32 56.52l-27.91.01L18.03 32 31.98 7.47l13.96 24.52 13.97 24.52z" stroke="#777" stroke-width="6.64" fill="none"/>
            <path d="M59.93 56.53l-27.91.01-27.91.01 13.94-24.53L32 7.49l13.96 24.52 13.97 24.52z" fill="#fff" stroke="#fff" stroke-width="6.4"/>
            <path d="M59.93 56.53l-27.91.01-27.91.01 13.94-24.53L32 7.49l13.96 24.52 13.97 24.52z" stroke="#d12d2d" stroke-width="3.746" fill="none"/>
        </g>
        <g>
            <g>
                <path d="M45.3 43.93l3.46 8.49 4.32-.01-4.49-8.46-3.29-.02z"/>
                <path d="M38.72 43.93l.69 8.54h4.32l-1.98-8.51-3.03-.03z"/>
                <path d="M30.4 43.93l-.33 8.56h4.32l-.53-8.54-3.46-.02z"/>
                <path d="M22.78 43.93l-2.07 8.6h4.32l.96-8.58-3.21-.02z"/>
                <path d="M15.69 43.93l-4.33 8.65 4.32-.01 3.28-8.62-3.27-.02z"/>
            </g>
            <g>
                <path d="M33.24 25.31c.04-.01.03 0-.04.01-.28.05-.54.18-.74.38l-4.78 4.88-.03.02-3.09 2.41c-.55.44-.66 1.25-.22 1.81.43.55 1.25.66 1.8.22l3.21-2.51c.04-.03.07-.06.11-.1v-.01l1.04-1.06v4.01l-3.54 5.39c-.05.07-.09.13-.13.21v.01l-2.07 5.28c-.26.66.08 1.41.73 1.67.66.26 1.41-.08 1.67-.74l2.04-5.2.85-1.27.02-.03 2.44-2.75 2.8 4.88c.01.01.01.02.02.03l3.5 4.81c.41.57 1.23.7 1.8.28.58-.42.69-1.24.27-1.8l-3.26-4.44-.01-.01-2.03-5.12.04-6.07 1.78 1.69.86 3.6c.16.69.85 1.11 1.54.95.68-.17 1.11-.86.94-1.54l-.94-3.97c-.06-.24-.19-.47-.37-.65l-5.18-4.92c-.25-.24-.6-.37-.95-.35h-.04s-.01-.01-.04 0z" stroke="#fff" stroke-width=".226"/>
                <path d="M33.73 23.4a2.246 2.246 0 1 1-4.488 0 2.246 2.246 0 1 1 4.492 0z"/>
            </g>
        </g>
    </g>
</svg>
