<svg height="64" version="1" width="64" xmlns="http://www.w3.org/2000/svg">
    <g>
        <g stroke-linecap="round" stroke-linejoin="round">
            <path d="M59.91 56.51L32 56.52l-27.91.01L18.03 32 31.98 7.47l13.96 24.52 13.97 24.52z" stroke="#777" stroke-width="6.64" fill="none"/>
            <path d="M59.93 56.53l-27.91.01-27.91.01 13.94-24.53L32 7.49l13.96 24.52 13.97 24.52z" fill="#fff" stroke="#fff" stroke-width="6.4"/>
            <path d="M59.93 56.53l-27.91.01-27.91.01 13.94-24.53L32 7.49l13.96 24.52 13.97 24.52z" stroke="#d12d2d" stroke-width="3.746" fill="none"/>
        </g>
        <g>
            <path d="M26.54 35.49l-.96.2s-.24.63-.04 1.27c.2.65.83 1.31.83 1.31l-.22.98-.45 1.34c-.81-.42-1.73-.66-2.7-.66-3.19 0-5.79 2.58-5.79 5.77 0 3.19 2.6 5.8 5.79 5.8s5.79-2.61 5.79-5.8c0-1.8-.82-3.4-2.12-4.46l.06-.15 5.95 5.9.16.15h2.42c.64 2.5 2.91 4.36 5.61 4.36 3.18 0 5.78-2.61 5.78-5.8s-2.6-5.77-5.78-5.77c-1.05 0-2.04.28-2.88.76l-1.68-2.68-.17-.25h-8.75s-.64-.43-.9-1c-.26-.57.05-1.27.05-1.27zm.85 3.4h8.13l1.55 2.47c-1.22 1.05-1.99 2.61-1.99 4.34 0 .11.01.21.01.31H33.3l-6.14-6.07.23-1.05zm-4.69 2.17c.1-.01.2 0 .3 0 .85 0 1.64.21 2.33.61l-.96 2.78s-.14.4-.37.57c-.22.18-1.12.23-1.12.23l.08 1.01s1.77-.1 1.97-.38c.15-.23.43-.88.43-.88l.91-2.61c.86.84 1.39 2.01 1.39 3.31 0 2.58-2.08 4.67-4.66 4.67s-4.66-2.09-4.66-4.67c0-2.47 1.93-4.49 4.36-4.64zm17.87 0c.1-.01.19 0 .3 0 2.57 0 4.65 2.06 4.65 4.64 0 2.58-2.08 4.67-4.65 4.67-2.08 0-3.84-1.35-4.44-3.23h3.87s.47-.24.7-.55c.24-.31.17-.84.17-.84l-2.58-4.11c.59-.33 1.27-.54 1.98-.58zm-2.89 1.25l2.32 3.7h-3.78c0-.1-.01-.21-.01-.31 0-1.34.56-2.54 1.47-3.39z" fill="#020202"/>
            <path d="M33.3 20.78c-1.3.05-2.34 1.13-2.34 2.44 0 1.27.97 2.33 2.21 2.45l.06 1.07s-.05-.13-.62.53c-.38.45-1.54 5.38-1.54 5.38l-3.47 2.07-1.44.82.26.64 1.63-.58.27.34s2.22-1.07 3.24-1.69c1.01-.62 1.28-1.51 1.28-1.51l.34-.9.57-.24 1.12 3.32s-4.46 1.29-4.78 2.02c-.39.9 1.42 5.77 1.42 5.77l-.49.23-.15.36.29.67.46.21 1.02-.41.01-.02.36 4.17-1.05-.02-.22.34v.85l.26.22 1.78.02h.76l-.05-.76.04-6.67.82-1.31 2.52-2.8s.62-.38 1-1.12c.37-.73.63-.77.3-2.54-.46-2.52-1.81-7.02-2.4-7.46-.65-.5-1.69-.46-1.69-.46v-1.22c.46-.45.76-1.07.76-1.77 0-1.34-1.09-2.44-2.44-2.44h-.1zm1.39 16.36l.37.31-2.45 3.41-.1.13-.68-2.95 2.86-.9z" fill-rule="evenodd"/>
        </g>
    </g>
</svg>
