<svg height="64" version="1" width="64" xmlns="http://www.w3.org/2000/svg">
    <g>
        <path d="M31.83 4.4c-1.11.05-2.17.7-2.71 1.66L1.48 54.69c-.56 1-.55 2.29.02 3.28.58.99 1.7 1.63 2.84 1.63l55.33-.01c1.14 0 2.26-.65 2.83-1.64.57-.99.58-2.28.02-3.27-9.23-16.21-18.46-32.41-27.69-48.61-.59-1.05-1.8-1.72-3-1.67z" style="-inkscape-font-specification:Sans;block-progression:tb;text-transform:none;line-height:normal;text-align:start;text-indent:0" font-family="Sans" enable-background="accumulate" overflow="visible" stroke-width=".224" stroke="#9c9c9c" fill="#fff" color="#000"/>
        <path d="M59.66 56.29l-55.32.02L31.98 7.69 59.66 56.3z" stroke-linejoin="round" stroke-linecap="round" stroke-width="3.712" stroke="#d12d2d" fill="#fff"/>
        <path d="M42.8 52.73v-9.87h5.21l5.49 9.87z" stroke-linejoin="round" stroke-linecap="round" stroke-width=".019" stroke="#000"/>
        <path d="M37.89 30.05L21.72 42.94l-.08.06-5.43.02-5.95 9.82 11.37-.11.09-9.79-3.13-3.57L34.9 26.23z" stroke-linejoin="round" stroke-linecap="round" stroke-width=".019" stroke="#000"/>
        <path d="M16.12 45.02s3.12 2.5 5.1 2.53c2 .03 3.24-2.42 5.24-2.42s3.24 2.4 5.24 2.42c2.18.02 3.61-2.58 5.79-2.53 1.98.04 3.13 2.45 5.1 2.53 2.18.09 5.93-2.3 5.93-2.3" stroke-width="1.095" stroke="#000" fill="none"/>
        <path d="M15.89 47.32s3.12 2.5 5.1 2.53c2 .03 3.24-2.42 5.24-2.42s3.24 2.4 5.24 2.42c2.18.02 3.61-2.58 5.79-2.53 1.98.04 3.13 2.45 5.1 2.53 2.18.09 5.93-2.3 5.93-2.3" stroke-width="1.095" stroke="#000" fill="none"/>
        <path d="M15.89 49.62s3.12 2.5 5.1 2.53c2 .03 3.24-2.42 5.24-2.42s3.24 2.4 5.24 2.42c2.18.02 3.61-2.58 5.79-2.53 1.98.04 3.13 2.45 5.1 2.53 2.18.09 5.93-2.3 5.93-2.3" stroke-width="1.095" stroke="#000" fill="none"/>
    </g>
</svg>
