<svg height="64" version="1" width="64" xmlns="http://www.w3.org/2000/svg">
    <g>
        <g stroke-linecap="round" stroke-linejoin="round">
            <path d="M59.91 56.51L32 56.52l-27.91.01L18.03 32 31.98 7.47l13.96 24.52 13.97 24.52z" stroke="#777" stroke-width="6.64" fill="none"/>
            <path d="M59.93 56.53l-27.91.01-27.91.01 13.94-24.53L32 7.49l13.96 24.52 13.97 24.52z" fill="#fff" stroke="#fff" stroke-width="6.4"/>
            <path d="M59.93 56.53l-27.91.01-27.91.01 13.94-24.53L32 7.49l13.96 24.52 13.97 24.52z" stroke="#d12d2d" stroke-width="3.746" fill="none"/>
        </g>
        <path d="M23.66 34.47c-.47.14-.59.52-1 1.31-.51.52-.8.52-1.31 1.16-.36.62-.58.84-.72 1.39-.11.29-.15.75.01 1.09.23.19.19.32.48.41.25-.03.6-.34 1.02-.48.38.17.55.34.94.52.58 1.72.41 4.58 1.47 6.31.37.37.63.72 1.51.82.36.6.39.74.52 1.58 0 .61.14.77 0 1.8-.19.3-.31.65-.18 1.14.36.06 1 .1 1.25-.03.05-.25-.12-.6-.08-1.03.09-.74-.27-3.73-.04-3.81.35.15.54 1.63.81 2.08.09.64-.01 1.06.04 1.79-.1.21-.17.41-.05.96.33.09.94.07 1.25.02-.02-.73-.03-.79-.08-1.08-.05-.32-.06-.61-.14-.67-.02-.72-.21-1.89-.24-2.16.46-.1.65-.3 1.1-.45.55.1.92.42 2.17.31 1.68-.16 3.25-.74 4.58-1.01.54-.06.57.12.75.09.23.49.46 1.07.27 2.31s-.79 2.02-.9 2.39c-.05.16-.22.31-.11.44.35.08.94.02 1.28-.04-.04-.29.03-.51.08-.67.1-.05.17.16.22 0 0-.77.41-2.26.47-2.96.05-.81.11-.69.18-.89.32.17.82 1.15 1.1 2.08.29.94.11 1.02 0 1.62-.1.6-.25.53-.19.88.35.06.86.05 1.18-.04-.02-.35-.15-.32-.06-.73-.09-.5-.16-1.64-.09-1.91-.2-.16-.2-1.1-.32-2.19.58-.51.77-2.32.77-2.32s.33.4.6.33c.26-.08.39-.29.37-.56.22-.03.38-.11.43-.38.05-.27-.09-.36-.28-.59.2-.12.48-.32.48-.72 0-.41-.15-.69-.41-.92.21-.15.37-.25.42-.72.05-.49-.34-.88-.86-1.14.05-.26.05-.62-.22-.89-.28-.27-.58-.31-.87-.28-.03-.34-.03-.63-.34-.88-.32-.25-.58-.23-.93-.12-.09-.29-.35-.61-.81-.7-.46-.09-.68.15-1.04.35-.22-.21-.38-.38-.72-.35-.34.03-.3.23-.64.47-.22-.15-.39-.28-.75-.15-.36.13-.47.38-.69.68-.2-.26-.27-.46-.55-.47-.28-.01-.38.23-.58.44-.22-.2-.33-.46-.69-.44-.37.02-.57.31-.78.53-.19-.28-.44-.57-.87-.59-.44-.02-.61.24-.87.5-.28-.18-.26-.49-.69-.47-.44.01-.8.31-1.17.48-.1-.26-.01-.68-.34-.98-.32-.3-.7-.18-1.07-.22-.05-.28.1-.52-.28-.69-.39-.17-.79-.06-1.11.12-.19-.35-.22-.56-.55-.7-.33-.13-.44-.02-.79.11-.08-.75.25-1.04-.2-1.05-.3-.05-.67.72-1.01.9-.24-.24.34-.94-.13-.93z" fill-rule="evenodd"/>
    </g>
</svg>
