<svg height="64" version="1" width="64" xmlns="http://www.w3.org/2000/svg">
    <g>
        <g stroke-linecap="round" stroke-linejoin="round">
            <path d="M59.91 56.51L32 56.52l-27.91.01L18.03 32 31.98 7.47l13.96 24.52 13.97 24.52z" stroke="#777" stroke-width="6.64" fill="none"/>
            <path d="M59.93 56.53l-27.91.01-27.91.01 13.94-24.53L32 7.49l13.96 24.52 13.97 24.52z" fill="#fff" stroke="#fff" stroke-width="6.4"/>
            <path d="M59.93 56.53l-27.91.01-27.91.01 13.94-24.53L32 7.49l13.96 24.52 13.97 24.52z" stroke="#d12d2d" stroke-width="3.746" fill="none"/>
        </g>
        <path d="M27.9 45.35l.02.61-1.59-.42S22.78 40.97 23 40.5c.2-.42 2.21 0 2.21 0l2.94.59s.05-2.2-.15-3.73c-.2-1.53-1.14-4.76-1.62-5.34-.45-.55-2.24.1-2.25-1.03-.01-1.17 2.45-.88 2.45-.88s.49-.55.95-.75c.47-.19 1.11-.13 1.11-.13l.39-1.47s-.8-1.04-.54-1.32c.28-.31.93.78.93.78l1.13-.69s-.5-1.07-.05-1.32c.39-.21.73.98.73.98l.94-.78s.07-1.77.49-1.62c.36.14.5 1.48-.25 2.4-.85 1.04-2.74 2.06-2.74 2.06l-.25.93s1.7-.07 1.77.64c.06.69-.98.33-1.92.63-.24 1.29.43 3.63 1.13 4.71.74 1.13 3.17 3.01 8.34 3.09 2.87.17 3.59 1.07 4.3 2.1.75 1.09 1.08 3.68 1.08 3.68l1.86 1.17 1.52 3.43 2.65 2.5-.35.54-2.98-2.4-1.77-3.33s-1.65.31-4.11-.79c-2.43-1.08-3.29-2.94-3.29-2.94s-1.28-.18-2.4-.01c-.94.15-1.89.49-2.74.55-1.85.13-7.01-.54-7.01-.54l1.13 2.65 1.27.49z" fill-rule="evenodd"/>
    </g>
</svg>
