<svg height="64" version="1" width="64" xmlns="http://www.w3.org/2000/svg">
    <g>
        <g stroke-linecap="round" stroke-linejoin="round">
            <path d="M59.91 56.51L32 56.52l-27.91.01L18.03 32 31.98 7.47l13.96 24.52 13.97 24.52z" stroke="#777" stroke-width="6.64" fill="none"/>
            <path d="M59.93 56.53l-27.91.01-27.91.01 13.94-24.53L32 7.49l13.96 24.52 13.97 24.52z" fill="#fff" stroke="#fff" stroke-width="6.4"/>
            <path d="M59.93 56.53l-27.91.01-27.91.01 13.94-24.53L32 7.49l13.96 24.52 13.97 24.52z" stroke="#d12d2d" stroke-width="3.746" fill="none"/>
        </g>
        <path d="M31.4 28.27c-.5 0-.88.3-1.13.58-.2.22-.28.37-.32.45l-1.6.37c-.1.03-.17.13-.16.24.01.11.1.2.21.21l1.29.08c.01.22.03.41.27.81.33.54.9.61 1.07.63.03.04.04.07.08.14.02.05.05.09.07.13-.12.12-.26.33-.3.71-.04.38-.01.67.03.97.03.27.07.57.08.96-.02.02-.01.02-.04.04-.07.06-.17.13-.28.21-.23.16-.51.36-.81.55-.48.33-.86.57-1.07.71-.44-.89-.99-1.89-1.65-2.77-.78-1.04-1.88-1.4-2.79-1.51-.79-.08-1.36 0-1.58.05l-.7-.92c-.05-.07-.15-.1-.24-.08-.09.03-.15.1-.17.19l-.15 1.31c-.04.06-.64.92-1.26 1.95-.31.53-.63 1.09-.84 1.6-.22.5-.37.92-.27 1.29.09.34.38.55.69.58.33.04.7-.08 1.1-.25.4-.17.83-.4 1.21-.64.67-.4 1.06-.7 1.22-.81.09.12.31.43.66 1.05.41.73.85 1.66.97 2.46.01 0 0 .01 0 .01-.29 1.48.3 2.88.43 3.15-.15.08-.92.51-1.86 1.07-.52.31-1.05.63-1.47.91-.21.14-.39.26-.54.38-.14.11-.25.18-.32.31-.09.14-.09.28-.12.48-.02.19-.04.43-.05.7-.02.55-.02 1.23 0 1.89.02 1.33.1 2.59.1 2.59.01.11.1.2.22.21l.92.01c.12 0 .21-.09.23-.21l.33-4.47 3.76-1.94 1.32 4.29c.01.02.02.03.03.05l2.63 4.65c.05.1.17.14.28.1l.72-.27c.06-.02.1-.07.13-.13.02-.05.02-.12 0-.18l-1.91-3.98v-.01l-.85-4.49c.24.01 1.33.07 2.84.11 1.59.05 3.3.06 4.23-.02.78 2.08 2.14 3.6 2.32 3.79l-2.41 4.7c-.04.07-.04.16 0 .23.05.07.12.11.21.11l1.08.01c.08 0 .16-.04.2-.11l2.63-4.57c.03-.06.04-.12.02-.18 0 0-.84-2.68-1.03-3.63-.01-.05.01-.12.02-.17.03.02.04.03.11.08.12.1.27.23.45.39.36.31.83.72 1.3 1.1 1.05.83 2.27 1.18 2.5 1.24l.59 5.71c.02.12.11.2.23.2h.89c.12 0 .22-.1.22-.23l.02-5.95c0-.04-.01-.09-.03-.13l-2.75-3.93c.01-.09.07-.57.08-1.22 0-.35 0-.73-.06-1.07-.03-.19-.07-.37-.14-.54.43-.05.89-.1 1.32-.1.53.01.96.13 1.07.24-.01 0 .05.1.1.24.04.15.09.34.14.55.09.44.18 1 .25 1.54.15 1.09.26 2.12.26 2.12.01.11.11.2.22.2h1.71c.06 0 .12-.03.16-.08.04-.04.07-.1.06-.16 0 0-.08-1.17-.29-2.46-.11-.64-.24-1.31-.43-1.89-.18-.57-.39-1.06-.73-1.34-.63-.52-1.56-.64-2.47-.62-.85.02-1.67.19-2.26.34-.71-.9-1.78-1.6-3.38-1.29-.49.1-1.21.18-1.98.24.05-.03.09-.07.11-.14.11-.31.18-.71.02-1.11-.16-.39-.59-.97-1.05-1.67-.45-.7-.9-1.5-1.11-2.2-.27-.91-.83-1.31-1.31-1.44-.27-.07-.5-.07-.67-.05l-.04-.17c.04-.01.12 0 .33-.19.24-.22.48-.6.46-1.11-.01-.41-.15-.84-.42-1.19-.27-.34-.67-.59-1.16-.59zm.35 7.39c.12.04.2.08.3.17.11.12.24.29.41.53.08.1.09.18.08.26 0 .09-.04.19-.09.27-.12.17-.29.3-.29.3-.01.01-.02.02-.02.03l-1.02 1.07c-.93 0-1.29-.04-1.34-.04-.04-.1-.23-.57-.48-1.13l2.45-1.46z"/>
    </g>
</svg>
