<svg xmlns="http://www.w3.org/2000/svg" height="64" version="1" width="64">
    <g>
        <path style="text-indent:0;text-align:start;line-height:normal;text-transform:none;block-progression:tb;-inkscape-font-specification:Sans" d="M31.825 4.402c-1.106.05-2.167.7-2.713 1.664L1.477 54.692c-.562.996-.553 2.29.024 3.278.578.988 1.7 1.632 2.844 1.63l55.326-.013c1.14-.004 2.26-.65 2.832-1.637.574-.987.582-2.278.02-3.272L34.833 6.066c-.595-1.048-1.803-1.717-3.007-1.664z" color="#000" fill="#fff" stroke="#9c9c9c" stroke-width=".224" overflow="visible" enable-background="accumulate" font-family="Sans"/>
        <path d="M59.662 56.293l-55.324.02L31.978 7.69 59.66 56.293z" fill="#fff" stroke="#d12d2d" stroke-width="3.712" stroke-linecap="round" stroke-linejoin="round"/>
        <path d="M31.93 22.58c-2.81.036-5.057 2.293-5.017 5.038v20.118c0 2.745 2.278 4.97 5.087 4.97 2.81 0 5.087-2.225 5.087-4.97V27.618c.02-1.342-.518-2.635-1.49-3.584-.97-.95-2.293-1.474-3.667-1.455z" fill-rule="evenodd"/>
        <path d="M36.38 27.827c0 2.294-2.086 4.38-4.38 4.38-2.293 0-4.38-2.086-4.38-4.38 0-2.293 2.087-4.38 4.38-4.38 2.294 0 4.38 2.087 4.38 4.38z" fill="#f70016"/>
        <path d="M36.38 37.637c0 2.293-2.086 4.38-4.38 4.38-2.293 0-4.38-2.087-4.38-4.38 0-2.294 2.087-4.38 4.38-4.38 2.294 0 4.38 2.086 4.38 4.38z" fill="#fdff25"/>
        <path d="M36.38 47.446c0 2.294-2.086 4.38-4.38 4.38-2.293 0-4.38-2.086-4.38-4.38 0-2.293 2.087-4.38 4.38-4.38 2.294 0 4.38 2.087 4.38 4.38z" fill="#3cac34"/>
    </g>
</svg>
