<svg xmlns="http://www.w3.org/2000/svg" height="64" version="1" width="64">
    <g>
        <g stroke-linecap="round" stroke-linejoin="round">
            <path d="M59.91 56.51L32 56.52l-27.91.01L18.03 32 31.98 7.47l13.96 24.52 13.97 24.52z" stroke="#777" stroke-width="6.64" fill="none"/>
            <path d="M59.93 56.53l-27.91.01-27.91.01 13.94-24.53L32 7.49l13.96 24.52 13.97 24.52z" fill="#fff" stroke="#fff" stroke-width="6.4"/>
            <path d="M59.93 56.53l-27.91.01-27.91.01 13.94-24.53L32 7.49l13.96 24.52 13.97 24.52z" stroke="#d12d2d" stroke-width="3.746" fill="none"/>
        </g>
        <g>
            <path d="M33.99 27h4.16v8.98l4.36 7.2v9.32h-4.17l-.03-9.25-4.24-7.27-.08-8.98z"/>
            <path d="M25.49 26.996h4.16v25.482h-4.16z"/>
        </g>
    </g>
</svg>
