<svg height="64" version="1" width="64" xmlns="http://www.w3.org/2000/svg">
    <g>
        <g stroke-linecap="round" stroke-linejoin="round">
            <path d="M59.91 56.51L32 56.52l-27.91.01L18.03 32 31.98 7.47l13.96 24.52 13.97 24.52z" stroke="#777" stroke-width="6.64" fill="none"/>
            <path d="M59.93 56.53l-27.91.01-27.91.01 13.94-24.53L32 7.49l13.96 24.52 13.97 24.52z" fill="#fff" stroke="#fff" stroke-width="6.4"/>
            <path d="M59.93 56.53l-27.91.01-27.91.01 13.94-24.53L32 7.49l13.96 24.52 13.97 24.52z" stroke="#d12d2d" stroke-width="3.746" fill="none"/>
        </g>
        <path d="M30.02 30.74l-1.92 2.72c-.48.69-.75.5-1.06.55h-.01c-.02.01-.05.03-.07.03-.01.01-.03.01-.04.02-.02 0-.05.02-.06.02-.14.09-.31.25-.51.58l-.89 2.66v.07c.05.23.57.61.62.88V38.33l-1 2.56c-.72.8-1.5.6-2.28 1.04-.84.47-1.88.86-2.35 2.09-.44 1.18-.19 2.07.79 2.81.02.01 4.16 1.01 5.81 1.14-.69 1.45-1.78 2.56-2.65 3.3-1.01.88-1.32.87-2.34 1.75 1.9-.02 2.32-.1 4.22-.13 1.19-1.47 2.08-3.01 2.74-4.71 3.23.56 6.3.53 8.51.97 1.75.36 3.88.65 4.27 1.35.01 0 .01.03.02.04.01.02.02.06.03.08 0 .01.01.04.01.06v.14c0 .01-.01.03-.01.04-.01.02-.01.04-.02.06 0 .01-.01.02-.01.03-.03.04-.06.1-.09.15 0 .03-.01.06-.03.09-.2.48-1.32 1.37-1.45 1.7 0 .01-.01.03-.01.03v.04c0 .01.01.02.01.02v.01l.01.02h.02c.01 0 .02.01.03.01 0 0 .02.01.03.02 0 0 .01-.01.01 0h1.64c.85-.68 2.09-2.36 1.45-3.39-.7-1.13-9.08-2.13-13.44-2.79.62-.75 1.79-.75 3.45-1.02 1.7-.28 1.84-.43 2.31-1.06l.84-2.34c.7.05 1.09-.13 1.38-.57l.97-2.58c.12-.3-.26-.99-.55-1.28l.16-4-8.54-3.27zm.59 1.2l7.02 2.67-.29 3.31-8.66-3.31 1.93-2.67zm-3.05 6.89l7.61 2.89-1.04 2.75s-1.12.55-2.71.78c-1.53.22-1.57-.39-3.72 1.41-2.15-.11-7.04-.88-5.88-2.8.74-1.22 2.85-1.8 3.94-2.02.58-.11.75-.38.75-.38l1.05-2.63z"/>
    </g>
</svg>
