<svg height="64" version="1" width="64" xmlns="http://www.w3.org/2000/svg">
    <g>
        <g stroke-linecap="round" stroke-linejoin="round">
            <path d="M59.91 56.51L32 56.52l-27.91.01L18.03 32 31.98 7.47l13.96 24.52 13.97 24.52z" stroke="#777" stroke-width="6.64" fill="none"/>
            <path d="M59.93 56.53l-27.91.01-27.91.01 13.94-24.53L32 7.49l13.96 24.52 13.97 24.52z" fill="#fff" stroke="#fff" stroke-width="6.4"/>
            <path d="M59.93 56.53l-27.91.01-27.91.01 13.94-24.53L32 7.49l13.96 24.52 13.97 24.52z" stroke="#d12d2d" stroke-width="3.746" fill="none"/>
        </g>
        <path d="M21.62 34.46l-1.31 2.08v.23h-.47l-1.17 2.68h1.64v8.12h-1.75v2.68h1.75v2.41h2.72v-2.41h2.41v2.41h2.73v-2.41h2.41v2.41h2.72v-2.41h2.42v2.41h2.72v-2.41h2.41v2.41h2.73v-2.41h1.93v-2.68h-1.93v-8.12h1.63l-1.08-2.68h-.55v-.23l-1.42-2.08-1.31 2.08v.23h-2.41v-.23l-1.41-2.08-1.31 2.08v.23H33.3v-.23l-1.41-2.08-1.31 2.08v.23h-2.41v-.23l-1.42-2.08-1.31 2.08v.23h-2.41v-.23l-1.41-2.08zm1.41 4.99h2.41v8.12h-2.41v-8.12zm5.14 0h2.41v8.12h-2.41v-8.12zm5.13 0h2.42v8.12H33.3v-8.12zm5.14 0h2.41v8.12h-2.41v-8.12z"/>
    </g>
</svg>
