<svg xmlns="http://www.w3.org/2000/svg" height="64" version="1" width="64">
    <g>
        <path style="text-indent:0;text-align:start;line-height:normal;text-transform:none;block-progression:tb;-inkscape-font-specification:Sans" d="M31.825 4.402c-1.106.05-2.167.7-2.713 1.664L1.477 54.692c-.562.996-.553 2.29.024 3.278.578.988 1.7 1.632 2.844 1.63l55.326-.013c1.14-.004 2.26-.65 2.832-1.637.574-.987.582-2.278.02-3.272L34.833 6.066c-.595-1.048-1.803-1.717-3.007-1.664z" color="#000" fill="#fff" stroke="#9c9c9c" stroke-width=".224" overflow="visible" enable-background="accumulate" font-family="Sans"/>
        <path d="M59.662 56.293l-55.324.02L31.978 7.69 59.66 56.293z" fill="#fff" stroke="#d12d2d" stroke-width="3.712" stroke-linecap="round" stroke-linejoin="round"/>
        <g>
            <path d="M20 33.988l-.28.48h8.858l3.69 5.225-3.613 3.034H27.26v.56h-9.4c-.316.044-.604.396-.776.77l-1.716 4.28.015 2.123c0 .113.07.252.235.248h32.588c.15 0 .318-.143.318-.323v-1.972l-1.843-4.608c-.068-.155-.45-.525-.565-.517H32.282v-.56H30.95l2.03-3.007-3.635-5.253H44.37l-.278-.48z"/>
            <path d="M18.302 44.147h1.13c.266 0 .318.17.318.392v3.445c0 .226-.19.378-.324.378h-2.48c-.186 0-.455-.325-.455-.483 0-.362 1.29-3.287 1.364-3.438.073-.15.31-.302.448-.295z" fill="#fff"/>
            <path d="M20.84 44.147h7.963c.213 0 .386.18.386.407v3.414c0 .227-.174.41-.387.41H20.84c-.213 0-.386-.183-.386-.41v-3.414c0-.227.173-.407.387-.407z" fill="#fff"/>
            <path d="M30.395 44.147h3.185c.218 0 .395.185.395.417v3.388c0 .232-.177.417-.395.417h-3.185c-.218 0-.392-.186-.392-.418v-3.388c0-.232.174-.417.392-.417z" fill="#fff"/>
            <path d="M35.06 44.147h7.965c.213 0 .386.18.386.407v3.414c0 .227-.172.41-.385.41H35.06c-.214 0-.383-.183-.383-.41v-3.414c0-.227.17-.407.383-.407z" fill="#fff"/>
            <path d="M44.454 44.147h1.148c.14-.007.374.144.448.295.074.15 1.365 3.076 1.365 3.438 0 .158-.268.483-.454.483H44.49c-.135 0-.334-.173-.334-.4V44.54c0-.223.118-.393.3-.393z" fill="#fff"/>
            <path d="M9.77 51.504l-.312.536h45.114l-.31-.536H9.773z"/>
            <g>
                <path d="M19.837 50.874c.297.368.737.603 1.228.603.492 0 .93-.235 1.228-.603h-2.456z"/>
                <path d="M23.14 50.874c.298.368.737.603 1.23.603.49 0 .93-.235 1.227-.603H23.14z"/>
            </g>
            <g>
                <path d="M38.898 50.916c.297.368.737.603 1.228.603.492 0 .93-.236 1.228-.604h-2.456z"/>
                <path d="M42.202 50.916c.297.368.737.603 1.228.603.492 0 .93-.236 1.228-.604h-2.456z"/>
            </g>
        </g>
    </g>
</svg>
