<svg height="64" version="1" width="64" xmlns="http://www.w3.org/2000/svg">
    <g>
        <g stroke-linecap="round" stroke-linejoin="round">
            <path d="M59.91 56.51L32 56.52l-27.91.01L18.03 32 31.98 7.47l13.96 24.52 13.97 24.52z" stroke="#777" stroke-width="6.64" fill="none"/>
            <path d="M59.93 56.53l-27.91.01-27.91.01 13.94-24.53L32 7.49l13.96 24.52 13.97 24.52z" fill="#fff" stroke="#fff" stroke-width="6.4"/>
            <path d="M59.93 56.53l-27.91.01-27.91.01 13.94-24.53L32 7.49l13.96 24.52 13.97 24.52z" stroke="#d12d2d" stroke-width="3.746" fill="none"/>
        </g>
        <path d="M27.84 27.44c-1.2.08-2.15 1.07-2.15 2.29 0 1.02.67 1.89 1.6 2.19.06.32.21.74.18.98v.02c-.36.24-1.53.07-1.68.11-.15.03-.15.05-.22.15-.07.1-1.82 2.51-2.62 3.64-.96.48-3.12.95-3.29 1.35-.17.41-.25.62.07.92.34.31 2.45-.63 3.78-1.09.76-.72 1.55-1.84 2.25-2.66.13 1.44.15 3.46.28 4.9-.38 1.08-1.01 2.1-1.49 3.16-.7 1.02-.58 2.29-.75 3.46-.11.36-.23 1.29-.35 1.63-.1.28-.38.34-.5.34-.21.01-.38.05-.5.13-.03.01-.18.17-.19.18-.16.25-.12.66-.09 1.05.97.17 1.79.29 2.77.46.18-1.72.7-3.79.89-5.51.23-.95.95-1.73 1.39-2.61.22-.74.72-.93 1.43-.72l1.05 3.09c.39.66 1.17 1.05 1.71 1.61.27.37.93.61 1.1 1.03.04.1-.07.45-.11.59-.09.22-.14.68.05.91.15.18.63.44.99.48.66-.72 1.09-1.5 1.75-2.22-1.06-.86-2.31-1.8-3.37-2.67-.72-.94-.8-2.38-1.42-3.41-.14-1.87-.07-3.78-.14-5.66.64.32 1.95 1.1 2.2 1.3.18.37.02 3.02.33 3.51.36.19 2.96.61 3.16.65.45.09.86-.13 1.03-.25.34-.24 1.25-.86 1.88-1.29-.47 1.48-.94 2.95-1.41 4.43-.08.28-.18.7-.09.8.09.11.5.31.85.41-.43.52-.94.98-1.23 1.59-.3.61-.07 2.43-.13 3.18-.07.58-.62.39-.65.77l-.03.41 2.12.04c.09-1.19.04-2.43.13-3.61.06-.56.8-1.42 1.02-1.72.22-.29.27-.29.39-.35.28-.12.85.02 1.12.02.28.01.61.01.72.05.34.14.45.78.66 1.13.2.36 2.26.96 3.09 1.28.84.32.46 1.29.82 1.38.12.03.36.05.5.03.14-.01.15-.06.19-.17l.45-1.27c-1.29-.79-2.57-1.56-3.85-2.35-.01-.04-.11-.14-.18-.27.15-.09.6-.14.55-.41-.07-.29-.65-.97-.77-1.26-.62-1.53-.74-3.3-.75-3.35-.01-.07-.01-.13.06-.21.08-.08.1-.07.18-.07.09 0 .53.04.68.18.16.15.6 1.52.74 1.97.07.22.24.91.36 1.14.27.11.54.07.79-.07-.12-.91-.23-1.75-.32-2.51-.09-.77-.22-1.01-.89-1.56-.43-.34-.98-.99-1.47-1.3-.33-.21-.68-.16-.76-.17-.22-.03-.35-.07-.41-.1-.03-.01-.06-.03-.08-.05 0-.01-.09-.11-.12-.24-.02-.11 0-.25.02-.38.71-.21 1.22-.87 1.22-1.65 0-.95-.77-1.72-1.72-1.72s-1.72.77-1.72 1.72c0 .74.47 1.37 1.13 1.61.05.12.07.24.09.38.01.18-.1.31-.16.34-.31.13-.94-.19-1.44.22-.43.37-1.42 1.18-2.19 1.78-.74.03-1.58-.33-2.37-.45-.01-.92-.21-2.41-.23-2.68-.01-.27-.26-.48-.39-.58-1.19-.94-2.68-2.21-2.88-2.39-.22-.2-.45-.34-.64-.37-.19-.02-1.07-.06-1.19-.15-.02-.28.01-.69.03-1.07.47-.11 1.4-1.15 1.4-2.12 0-1.26-.86-2.3-2.12-2.3h-.14z"/>
    </g>
</svg>
