<svg height="64" version="1" width="64" xmlns="http://www.w3.org/2000/svg">
    <g>
        <g stroke-linecap="round" stroke-linejoin="round">
            <path d="M59.91 56.51L32 56.52l-27.91.01L18.03 32 31.98 7.47l13.96 24.52 13.97 24.52z" stroke="#777" stroke-width="6.64" fill="none"/>
            <path d="M59.93 56.53l-27.91.01-27.91.01 13.94-24.53L32 7.49l13.96 24.52 13.97 24.52z" fill="#fff" stroke="#fff" stroke-width="6.4"/>
            <path d="M59.93 56.53l-27.91.01-27.91.01 13.94-24.53L32 7.49l13.96 24.52 13.97 24.52z" stroke="#d12d2d" stroke-width="3.746" fill="none"/>
        </g>
        <path d="M24.63 34.45c-.23.1.79.68 1.86.76 1.08.08 5.1-.01 7.59.39 1.49.1 5.62-.71 6.41-.64.77 0 1.7.63 1.81 1.28.55.32.57 2.21.72 3.07.14.86-.15.87.14 2.04.23.49.65.11.77 1.17.01.81-.41 1.46-.38 2.06-.2-.08-.36-.48-.38-.69.05-.62-.03-.85-.59-1.52-.29-.71.22-.75.11-.99-.24-1.07-.2-3.36-.56-4.42-.02.25.02.78.05 1.08-.01 1.18-.18 1.96-.34 2.42-.1.19-.19 1.66-.36 1.94-.17.27-.22.27.1 1.2.3.9.72 1.51.78 2.61.04.43.02 1.05.11 1.53-.31.32.07.85.03 1.22-.43.29-.91.34-1.28.32-.01-.38.02-.79.2-1.22.19-.44-.16-1.15-.16-2.05-.06-.72-.94-1.38-1.45-2.08-.68.97-.09 2.52-.08 3.65-.65.23-.72 1.62-1.13 1.65-.64.06-.78.01-1.02-.15.06-.42.21-.81.5-1.24.52-.59.44-3.01.12-3.86-.1-.02-.42 1.1-1.38 1.11-.94.01-1.13-.94-1.46-1.64-.78.05-2.26.22-4.65-.03-.4.47-.38 1.36-.11 1.77.08.2.25.61.1.74-.31.56.09 1.94.21 2.13.31.49-.34.29-.45.91-.34.34-.52.52-.96.31-.02-.55.19-.66.35-1.09.29-1.19-.3-2.21-.69-2.86-.21-.36-.14.14-.2.48-.04.45-.47.63-.57 1.29-.09.61-.03 1.52-.32 1.68-.63.31-.55.69-1.41.59-.25-.2-.17-.31.04-.52.67-.79.87-1.94.8-3.19-.06-.61-.02-.96-.09-1.42-.15.06-.74-.6-1.34-.98-.6-.39-.4-1.36-1.13-2.44-.39-.63-.94-1.23-1.56-1.62-.75-.2-1.03-.15-1.78-.49-.49-.18-.83.02-1.35.05-.67.08-.25-.26-.85-.59-.36-.26-.08-.74 0-.85.39-.66.23-.21 1.86-1.66.67-.59 1.13-.76.86-1.12-.16-.21-1.26.29-1.53.21-.48-.13-.93-.68-.17-.56.77.12 2.46-1.05 2.64-.61.18.43.22.72.45.54.21-.17.32-.55.47-.65.18-.11.6.06.73.36.1.24.14.51-.08.62z" font-size="12"/>
    </g>
</svg>
