<svg xmlns="http://www.w3.org/2000/svg" height="64" version="1" width="64">
    <g>
        <path style="text-indent:0;text-align:start;line-height:normal;text-transform:none;block-progression:tb;-inkscape-font-specification:Sans" d="M31.825 4.402c-1.106.05-2.167.7-2.713 1.664L1.477 54.692c-.562.996-.553 2.29.024 3.278.578.988 1.7 1.632 2.844 1.63l55.326-.013c1.14-.004 2.26-.65 2.832-1.637.574-.987.582-2.278.02-3.272L34.833 6.066c-.595-1.048-1.803-1.717-3.007-1.664z" color="#000" fill="#fff" stroke="#9c9c9c" stroke-width=".224" overflow="visible" enable-background="accumulate" font-family="Sans"/>
        <g>
            <path d="M59.662 56.293l-55.324.02L31.978 7.69 59.66 56.293z" fill="#fff" stroke="#d12d2d" stroke-width="3.712" stroke-linecap="round" stroke-linejoin="round"/>
            <g>
                <path d="M30.308 24.6l-1.794 2.907.433 1.36.37.063.558-.866.866.062.034-3.36z"/>
                <path d="M29.44 30.158l-1.444.042-1.885 3.38.696 1.708.39.18.82-.022.95-1.802.4-.02z"/>
                <path d="M24.994 36.088l-.884 1.41.18.244h.578l.642-1.148z"/>
                <path d="M25.563 40.25l-1.548 2.885 1.643-.148.442-1.38z"/>
                <path d="M35.5 20.97l-.688 3.968.844.937-.406 5.844-1.625 1.343-.844 6.968-1.843 2.314-.875 7.03 1.5 2.313h-4.406l.938-1.968-.313-.782-3.468 1 .625 1.75H21.97l.06-1.97h-.53l-.875.376L20 51.156l.47.532h-1.782l-.47-1.376-1.062.688.032.688H11.03V53h42.845z"/>
            </g>
        </g>
    </g>
</svg>
