<svg height="64" version="1" width="64" xmlns="http://www.w3.org/2000/svg">
    <g>
        <g stroke-linecap="round" stroke-linejoin="round">
            <path d="M59.91 56.51L32 56.52l-27.91.01L18.03 32 31.98 7.47l13.96 24.52 13.97 24.52z" stroke="#777" stroke-width="6.64" fill="none"/>
            <path d="M59.93 56.53l-27.91.01-27.91.01 13.94-24.53L32 7.49l13.96 24.52 13.97 24.52z" fill="#fff" stroke="#fff" stroke-width="6.4"/>
            <path d="M59.93 56.53l-27.91.01-27.91.01 13.94-24.53L32 7.49l13.96 24.52 13.97 24.52z" stroke="#d12d2d" stroke-width="3.746" fill="none"/>
        </g>
        <path d="M26.86 24.97l2.41 4.33h.06l.04 10.4 7.87-6.24c.73-.57 1.72-.67 2.54-.27.83.41 1.35 1.26 1.34 2.18l-.1 14.52h-.01l.03 3.45-2.37-2.66-2.54 2.69.1-3.51.07-9.53-7.81 6.19c-.72.57-1.71.68-2.54.28-.83-.4-1.35-1.24-1.35-2.16l-.07-15.33h.07l2.26-4.34z" fill-rule="evenodd"/>
    </g>
</svg>
