<svg height="64" version="1" width="64" xmlns="http://www.w3.org/2000/svg">
    <g>
        <g stroke-linecap="round" stroke-linejoin="round">
            <path d="M59.91 56.51L32 56.52l-27.91.01L18.03 32 31.98 7.47l13.96 24.52 13.97 24.52z" stroke="#777" stroke-width="6.64" fill="none"/>
            <path d="M59.93 56.53l-27.91.01-27.91.01 13.94-24.53L32 7.49l13.96 24.52 13.97 24.52z" fill="#fff" stroke="#fff" stroke-width="6.4"/>
            <path d="M59.93 56.53l-27.91.01-27.91.01 13.94-24.53L32 7.49l13.96 24.52 13.97 24.52z" stroke="#d12d2d" stroke-width="3.746" fill="none"/>
        </g>
        <path d="M48.84 45.55l-.02 4.57-32.86-.01.11-4.48c3.43 0 4.75-4.79 7.98-4.76 3.2.02 4.07 4.76 8.28 4.76 4.44-.01 4.73-4.71 8.69-4.77 3.68-.06 4.86 4.65 7.82 4.69z"/>
    </g>
</svg>
