<svg height="64" version="1" width="64" xmlns="http://www.w3.org/2000/svg">
    <g>
        <g stroke-linecap="round" stroke-linejoin="round">
            <path d="M59.91 56.51L32 56.52l-27.91.01L18.03 32 31.98 7.47l13.96 24.52 13.97 24.52z" stroke="#777" stroke-width="6.64" fill="none"/>
            <path d="M59.93 56.53l-27.91.01-27.91.01 13.94-24.53L32 7.49l13.96 24.52 13.97 24.52z" fill="#fff" stroke="#fff" stroke-width="6.4"/>
            <path d="M59.93 56.53l-27.91.01-27.91.01 13.94-24.53L32 7.49l13.96 24.52 13.97 24.52z" stroke="#d12d2d" stroke-width="3.746" fill="none"/>
        </g>
        <path d="M51 50.42l-.03 1.37H13.14l.11-1.29c9.49 0 9.1-6.28 18.52-6.28 10.72 0 8.2 6.2 19.23 6.2z"/>
    </g>
</svg>
