<svg height="64" version="1" width="64" xmlns="http://www.w3.org/2000/svg">
    <g>
        <g stroke-linecap="round" stroke-linejoin="round">
            <path d="M59.91 56.51L32 56.52l-27.91.01L18.03 32 31.98 7.47l13.96 24.52 13.97 24.52z" stroke="#777" stroke-width="6.64" fill="none"/>
            <path d="M59.93 56.53l-27.91.01-27.91.01 13.94-24.53L32 7.49l13.96 24.52 13.97 24.52z" fill="#fff" stroke="#fff" stroke-width="6.4"/>
            <path d="M59.93 56.53l-27.91.01-27.91.01 13.94-24.53L32 7.49l13.96 24.52 13.97 24.52z" stroke="#d12d2d" stroke-width="3.746" fill="none"/>
        </g>
        <path d="M35.46 24.58c-.88.01-1.8.52-2.33 1.58-1.04-.89-2.49-1.29-3.13 1.28-3.72-.55-4.8 1.55-4.13 4.36-1.95.52-2.9 4-2.05 8.11h-.54v2.7h-2.54l-.76.32c-.37.46-.62 1.33-.62 2.3 0 .98.25 1.83.62 2.29v.3h-1.61v1.2l2.66-.02c-.61.21-1.03.78-1.03 1.46 0 .84.68 1.52 1.52 1.52s1.52-.68 1.52-1.52c0-.68-.42-1.25-1.03-1.46h2.45c-.14.28-.22.59-.22.92 0 1.17.95 2.12 2.12 2.12 1.17 0 2.13-.95 2.13-2.12 0-.33-.08-.64-.21-.92h1.1c-.13.28-.21.59-.21.92 0 1.17.95 2.12 2.12 2.12 1.16 0 2.11-.95 2.11-2.12 0-.33-.08-.64-.21-.92h1.12c-.14.28-.22.59-.22.92 0 1.17.95 2.12 2.12 2.12 1.17 0 2.12-.95 2.12-2.12 0-.33-.08-.64-.21-.92l4.62-.01v-4.38h-3.07v-3.16h3.77v-1.13h-6.61v2.29h-5.46v-1.72c0-.01.01-.03.01-.03v-.03s-.01-.02-.01-.03v-.04c-.04-.52-.47-.93-1-.93h-.11c-.49.05-.87.37-.91.86l-.07 1.92h-3.53v-2.7h-1s-.51-3.39.02-4.05c.5-.63.94-.42 1.69-.28.41 1.35 1.44 2.09 2.21 1.72 1.06-.49 1.3-.71 1.81-1.87.96.68 4.28 1.78 3.71-2.33 5.06 1.05 6.03-3.6 3.59-5.53.22-1.95-1.01-3.01-2.32-2.99zm-19.87 27.5v1.23h33v-1.23h-33z"/>
    </g>
</svg>
